# xmcd CD database file
#
# Track frame offsets:
#	150
#	13117
#	26187
#	38339
#	51659
#	66791
#	81248
#	94799
#	108510
#	122374
#	136054
#	149307
#	162366
#	176427
#	188541
#	202491
#	214222
#	226571
#	240669
#	253457
#
# Disc length: 3535 seconds
#
# Revision: 5
# Processed by: cddbd v1.5.2PL0 Copyright (c) Steve Scherf et al.
# Submitted via: CDex 1.70beta2
#
DISCID=1b0dcd14
DTITLE=Various Artist - Dixieland Jazz_ This Was the Jazz Age [disc 4]
DYEAR=2005
DGENRE=Jazz
TTITLE0=Jones and Collins Astoria Hot Eight - Duet Stomp
TTITLE1=Jelly Roll Morton's Red Hot Peppers - Cannon Ball Blues
TTITLE2=Omer Simeon With Earl Hines - Beau-Koo Jack
TTITLE3=Jimmie Noone's Apex Club Orchestra - I Know That You Know
TTITLE4=Louis Dumaine's Jazzola Eight - Franklin Street Blues
TTITLE5=Celestin's Original Tuxedo Jazz Orchestra - As You Like It
TTITLE6=New Orleans Rhythm Kings - Panama
TTITLE7=Scott Joplin - Original Rags
TTITLE8=Kid Ory - Ory's Creole Trombone
TTITLE9=Frankie Trumbauer and his Orchestra - Trumbology
TTITLE10=Johnny Dodds - Clarinet Wobble
TTITLE11=Jelly Roll Morton - That's Like It Ought To Be
TTITLE12=Louis Armstrong - Cornet Chop Suey
TTITLE13=Jabbo Smith's Rhythm Aces - Jazz Battle
TTITLE14=King Oliver - Snag It
TTITLE15=New Orleans Rhythm Kings - That's A Plenty
TTITLE16=Original Dixieland Jazz Band - Home Again Blues
TTITLE17=J. C. Higginbotham - It Should Be You
TTITLE18=McKinney's Cotton Pickers - Milenberg Joys
TTITLE19=Red Nichols - Wabash Blues
EXTD=YEAR: 2005
EXTT0=
EXTT1=
EXTT2=
EXTT3=
EXTT4=
EXTT5=
EXTT6=
EXTT7=
EXTT8=
EXTT9=
EXTT10=
EXTT11=
EXTT12=
EXTT13=
EXTT14=
EXTT15=
EXTT16=
EXTT17=
EXTT18=
EXTT19=
PLAYORDER=
